<mxfile host="app.diagrams.net" modified="2020-10-21T04:28:42.952Z" agent="5.0 (Macintosh; Intel Mac OS X 10_15_4) AppleWebKit/537.36 (KHTML, like Gecko) Chrome/86.0.4240.80 Safari/537.36" etag="qwEg09fYmkHjDxQWrhRz" version="13.8.1" type="github">
  <diagram id="fUI37jhyw17FtWJoVdjw" name="Page-1">
    <mxGraphModel dx="946" dy="591" grid="1" gridSize="10" guides="1" tooltips="1" connect="1" arrows="1" fold="1" page="1" pageScale="1" pageWidth="827" pageHeight="1169" math="0" shadow="0">
      <root>
        <mxCell id="0" />
        <mxCell id="1" parent="0" />
        <mxCell id="Vcr402-j1Aoc1Fx-MnVN-1" value="基金险种" style="rounded=1;whiteSpace=wrap;html=1;" vertex="1" parent="1">
          <mxGeometry x="230" y="190" width="80" height="30" as="geometry" />
        </mxCell>
        <mxCell id="Vcr402-j1Aoc1Fx-MnVN-2" value="银行账号" style="rounded=1;whiteSpace=wrap;html=1;" vertex="1" parent="1">
          <mxGeometry x="230" y="270" width="80" height="30" as="geometry" />
        </mxCell>
        <mxCell id="Vcr402-j1Aoc1Fx-MnVN-3" value="行政区划" style="rounded=1;whiteSpace=wrap;html=1;" vertex="1" parent="1">
          <mxGeometry x="230" y="360" width="80" height="30" as="geometry" />
        </mxCell>
        <mxCell id="Vcr402-j1Aoc1Fx-MnVN-4" value="银行类别" style="rounded=1;whiteSpace=wrap;html=1;" vertex="1" parent="1">
          <mxGeometry x="70" y="270" width="80" height="30" as="geometry" />
        </mxCell>
        <mxCell id="Vcr402-j1Aoc1Fx-MnVN-5" value="帐套" style="rounded=1;whiteSpace=wrap;html=1;" vertex="1" parent="1">
          <mxGeometry x="390" y="190" width="80" height="30" as="geometry" />
        </mxCell>
        <mxCell id="Vcr402-j1Aoc1Fx-MnVN-6" value="会计科目" style="rounded=1;whiteSpace=wrap;html=1;" vertex="1" parent="1">
          <mxGeometry x="550" y="190" width="80" height="30" as="geometry" />
        </mxCell>
        <mxCell id="Vcr402-j1Aoc1Fx-MnVN-27" style="edgeStyle=orthogonalEdgeStyle;rounded=0;orthogonalLoop=1;jettySize=auto;html=1;exitX=0.5;exitY=1;exitDx=0;exitDy=0;entryX=1;entryY=0.5;entryDx=0;entryDy=0;" edge="1" parent="1" source="Vcr402-j1Aoc1Fx-MnVN-7" target="Vcr402-j1Aoc1Fx-MnVN-3">
          <mxGeometry relative="1" as="geometry" />
        </mxCell>
        <mxCell id="Vcr402-j1Aoc1Fx-MnVN-29" style="edgeStyle=orthogonalEdgeStyle;rounded=0;orthogonalLoop=1;jettySize=auto;html=1;exitX=1;exitY=0.25;exitDx=0;exitDy=0;entryX=0.5;entryY=1;entryDx=0;entryDy=0;" edge="1" parent="1" source="Vcr402-j1Aoc1Fx-MnVN-7" target="Vcr402-j1Aoc1Fx-MnVN-4">
          <mxGeometry relative="1" as="geometry" />
        </mxCell>
        <mxCell id="Vcr402-j1Aoc1Fx-MnVN-7" value="辅助核算" style="rounded=1;whiteSpace=wrap;html=1;" vertex="1" parent="1">
          <mxGeometry x="710" y="190" width="80" height="30" as="geometry" />
        </mxCell>
        <mxCell id="Vcr402-j1Aoc1Fx-MnVN-8" value="收支项目" style="rounded=1;whiteSpace=wrap;html=1;" vertex="1" parent="1">
          <mxGeometry x="230" y="100" width="80" height="30" as="geometry" />
        </mxCell>
        <mxCell id="Vcr402-j1Aoc1Fx-MnVN-9" value="1:1" style="endArrow=classic;startArrow=classic;html=1;exitX=1;exitY=0.5;exitDx=0;exitDy=0;entryX=0;entryY=0.5;entryDx=0;entryDy=0;" edge="1" parent="1" source="Vcr402-j1Aoc1Fx-MnVN-1" target="Vcr402-j1Aoc1Fx-MnVN-5">
          <mxGeometry width="50" height="50" relative="1" as="geometry">
            <mxPoint x="320" y="250" as="sourcePoint" />
            <mxPoint x="370" y="200" as="targetPoint" />
          </mxGeometry>
        </mxCell>
        <mxCell id="Vcr402-j1Aoc1Fx-MnVN-10" value="" style="rhombus;whiteSpace=wrap;html=1;" vertex="1" parent="1">
          <mxGeometry x="470" y="197.5" width="40" height="15" as="geometry" />
        </mxCell>
        <mxCell id="Vcr402-j1Aoc1Fx-MnVN-13" value="" style="endArrow=none;html=1;exitX=1;exitY=0.5;exitDx=0;exitDy=0;entryX=0;entryY=0.5;entryDx=0;entryDy=0;" edge="1" parent="1" source="Vcr402-j1Aoc1Fx-MnVN-10" target="Vcr402-j1Aoc1Fx-MnVN-6">
          <mxGeometry width="50" height="50" relative="1" as="geometry">
            <mxPoint x="500" y="240" as="sourcePoint" />
            <mxPoint x="550" y="190" as="targetPoint" />
          </mxGeometry>
        </mxCell>
        <mxCell id="Vcr402-j1Aoc1Fx-MnVN-14" value="" style="rhombus;whiteSpace=wrap;html=1;" vertex="1" parent="1">
          <mxGeometry x="630" y="197.5" width="40" height="15" as="geometry" />
        </mxCell>
        <mxCell id="Vcr402-j1Aoc1Fx-MnVN-15" value="" style="endArrow=none;html=1;entryX=0;entryY=0.5;entryDx=0;entryDy=0;" edge="1" parent="1">
          <mxGeometry width="50" height="50" relative="1" as="geometry">
            <mxPoint x="670" y="204.5" as="sourcePoint" />
            <mxPoint x="710" y="204.5" as="targetPoint" />
          </mxGeometry>
        </mxCell>
        <mxCell id="Vcr402-j1Aoc1Fx-MnVN-17" value="" style="rhombus;whiteSpace=wrap;html=1;" vertex="1" parent="1">
          <mxGeometry x="190" y="277.5" width="40" height="15" as="geometry" />
        </mxCell>
        <mxCell id="Vcr402-j1Aoc1Fx-MnVN-18" value="" style="endArrow=none;html=1;exitX=1;exitY=0.5;exitDx=0;exitDy=0;entryX=0;entryY=0.5;entryDx=0;entryDy=0;" edge="1" parent="1">
          <mxGeometry width="50" height="50" relative="1" as="geometry">
            <mxPoint x="150" y="284.5" as="sourcePoint" />
            <mxPoint x="190" y="284.5" as="targetPoint" />
          </mxGeometry>
        </mxCell>
        <mxCell id="Vcr402-j1Aoc1Fx-MnVN-19" value="" style="rhombus;whiteSpace=wrap;html=1;" vertex="1" parent="1">
          <mxGeometry x="260" y="238" width="20" height="32" as="geometry" />
        </mxCell>
        <mxCell id="Vcr402-j1Aoc1Fx-MnVN-20" value="" style="endArrow=none;html=1;" edge="1" parent="1">
          <mxGeometry width="50" height="50" relative="1" as="geometry">
            <mxPoint x="270" y="240" as="sourcePoint" />
            <mxPoint x="270" y="218" as="targetPoint" />
          </mxGeometry>
        </mxCell>
        <mxCell id="Vcr402-j1Aoc1Fx-MnVN-21" value="" style="rhombus;whiteSpace=wrap;html=1;" vertex="1" parent="1">
          <mxGeometry x="260" y="300" width="20" height="32" as="geometry" />
        </mxCell>
        <mxCell id="Vcr402-j1Aoc1Fx-MnVN-24" value="" style="endArrow=none;html=1;exitX=0.5;exitY=0;exitDx=0;exitDy=0;" edge="1" parent="1" source="Vcr402-j1Aoc1Fx-MnVN-3">
          <mxGeometry width="50" height="50" relative="1" as="geometry">
            <mxPoint x="330" y="384" as="sourcePoint" />
            <mxPoint x="270" y="332" as="targetPoint" />
          </mxGeometry>
        </mxCell>
        <mxCell id="Vcr402-j1Aoc1Fx-MnVN-25" value="" style="rhombus;whiteSpace=wrap;html=1;" vertex="1" parent="1">
          <mxGeometry x="260" y="130" width="20" height="32" as="geometry" />
        </mxCell>
        <mxCell id="Vcr402-j1Aoc1Fx-MnVN-26" value="" style="endArrow=none;html=1;exitX=0.5;exitY=0;exitDx=0;exitDy=0;entryX=0.5;entryY=1;entryDx=0;entryDy=0;" edge="1" parent="1" target="Vcr402-j1Aoc1Fx-MnVN-25">
          <mxGeometry width="50" height="50" relative="1" as="geometry">
            <mxPoint x="270" y="190" as="sourcePoint" />
            <mxPoint x="310" y="130" as="targetPoint" />
          </mxGeometry>
        </mxCell>
      </root>
    </mxGraphModel>
  </diagram>
</mxfile>
